<?xml version="1.0" encoding="utf-8"?>
<!-- Generator: Adobe Illustrator 22.1.0, SVG Export Plug-In . SVG Version: 6.00 Build 0)  -->
<svg version="1.1" id="Layer_1" xmlns="http://www.w3.org/2000/svg" xmlns:xlink="http://www.w3.org/1999/xlink" x="0px" y="0px"
	 viewBox="0 0 735.8 129.1" style="enable-background:new 0 0 735.8 129.1;" xml:space="preserve">
<style type="text/css">
	.st0{fill:#FFCD05;}
	.st1{fill:#FFFFFF;}
	.st2{fill:none;}
</style>
<g>
	<g>
		<path class="st0" d="M601,125.6c-15.7-3.7-31.4-5.9-45.7-7c0.1,0.4,0.2,0.9,0.3,1.3c-1.7-0.2-4.2-0.4-6.8-0.6l-0.5-1.3
			c-20.1-1.3-36.5-0.8-44.5-0.3c1-4.5,5.9-13.7,5.9-13.7l28.6-43.3V39.4c7.6-8,15.2-16.8,22.2-26.4c8.6,8.7,19.6,28.8,28.3,53.3
			C597.8,90.9,602.2,113.4,601,125.6z"/>
		<path class="st0" d="M567.9,2.5c-1.8,0.6-3,2.6-3.8,5.6c8.9,6.7,21.5,28.5,31.3,55.9c9.9,27.5,14.1,52.3,11.4,63.1
			c0.1,0,0.2,0.1,0.3,0.1c2.3,1.7,4.5,2.3,6.2,1.7c8.3-3,4.9-33.7-7.7-68.6C593.1,25.4,576.2-0.5,567.9,2.5z"/>
	</g>
	<path class="st0" d="M306.2,86.5c-4.4,6.3-11.2,10.9-19.7,13.2c-0.7,3.8-3.6,6.4-9.2,6.4h-18.5v19.2h22.6
		c15.3,0,30.1-7.5,30.1-25.8C311.5,94.6,309.7,90.1,306.2,86.5z"/>
	<path class="st0" d="M374.8,37.6V90c0,11.3-7.7,17.2-17.8,17.2c-10.1,0-17.6-5.9-17.6-17.2V37.6H315v51.8
		c0,24.1,15.5,38.8,40.9,38.8c24.9,0,41.1-15,41.1-38.8V37.6H374.8z"/>
	<path class="st0" d="M431.9,106.1l44.2-50.7V37.6h-74.3v19.2h43.5l-44.9,50.1v18.4h77v-19.2L431.9,106.1L431.9,106.1z"/>
	<path class="st0" d="M512.3,106.1l44.2-50.7V37.6h-74.3v19.2h43.5l-44.9,50.1v18.4h77v-19.2L512.3,106.1L512.3,106.1z"/>
	<path class="st1" d="M63.4,57.5V37.7h81.8v19.8h-28.6v67.8H92.2V57.5L63.4,57.5L63.4,57.5z"/>
	<path class="st1" d="M136.5,82.9c0-28.8,18.9-48.2,47.9-48.2c28,0,45.9,18.4,45.9,45.3c0,28.8-18.8,48.2-47.8,48.2
		C154.8,128.2,136.5,110,136.5,82.9z M204.8,82.5c0-16.8-8.3-28-22.2-28c-12.8,0-20.5,10.3-20.5,25.8c0,16.8,8.5,28,22.5,28
		C197.4,108.4,204.8,98.1,204.8,82.5z"/>
	<path class="st1" d="M309.6,67.8c0,18.9-14.9,31.4-36.6,31.4h-16.4v26.1h-24.4V37.6H273C296,37.6,309.6,49.6,309.6,67.8z
		 M284.1,68.3c0-7.1-5.1-11.4-12.9-11.4h-14.5v23h14.5C279,79.9,284.1,75.5,284.1,68.3z"/>
	<path class="st0" d="M629.1,72.4l-0.2-0.2c-0.1-0.1-0.2-0.2-0.3-0.3l-0.2-0.3v-1.9l29.4,7.3l-0.6,2.4L629.1,72.4z"/>
	<path class="st0" d="M629.4,71.3c0.1,0.1,0.2,0.2,0.2,0.2l26.8,6.6l0.1-0.5L629.4,71L629.4,71.3L629.4,71.3z"/>
	<polygon class="st0" points="610.8,20.2 626.6,1.9 627.9,3.2 612,21.8 	"/>
	<polygon class="st0" points="612.4,20.2 628.1,2.1 627.9,1.9 612.2,19.9 	"/>
	<polygon class="st0" points="625.7,20.1 653.2,0 654.7,2 627.2,22.1 	"/>
	
		<rect x="624.2" y="10.8" transform="matrix(0.8079 -0.5894 0.5894 0.8079 116.5133 379.441)" class="st0" width="32.1" height="0.5"/>
	<path class="st0" d="M616.8,28.2c-0.1-0.1-0.1-0.2-0.2-0.4l-0.5-0.8l3.7-2.7l1.4,2l-3.9,2.8L616.8,28.2z"/>
	<path class="st0" d="M619.8,26.2l-2.2,1.6c-0.1-0.1-0.2-0.3-0.2-0.4l2.1-1.6L619.8,26.2z"/>
	<path class="st0" d="M624.1,44.1l-0.4-1l8.9-2.6l0.7,2.4l-8.8,2.5C624.5,45.4,624.1,44.2,624.1,44.1z"/>
	<path class="st0" d="M632.1,42.2l-6.9,2c0-0.1-0.1-0.3-0.2-0.4l6.9-2L632.1,42.2z"/>
	<polygon class="st0" points="626.8,51.3 659.3,47.8 659.6,50.3 627.5,53.7 	"/>
	<polygon class="st0" points="628.3,52.6 658.5,49.4 658.4,48.9 628.1,52.1 	"/>
	<path class="st0" d="M620.9,36.1c0-0.1-0.1-0.2-0.2-0.3l-0.5-0.9l30.5-14.9l1.1,2.2l-30.5,15L620.9,36.1z"/>
	<path class="st0" d="M650.5,21.6l-28.7,14.1c-0.1-0.1-0.1-0.3-0.2-0.4l28.7-14.1L650.5,21.6z"/>
	
		<rect x="654.1" y="46.4" transform="matrix(6.740175e-02 -0.9977 0.9977 6.740175e-02 547.8685 712.9395)" class="st0" width="2.5" height="34"/>
	
		<rect x="655.1" y="47.4" transform="matrix(6.779993e-02 -0.9977 0.9977 6.779993e-02 547.6288 712.8782)" class="st0" width="0.5" height="32.1"/>
	
		<rect x="635.3" y="34.7" transform="matrix(0.9607 -0.2775 0.2775 0.9607 15.6596 182.4411)" class="st0" width="34" height="2.5"/>
	
		<rect x="636.3" y="35.6" transform="matrix(0.9607 -0.2775 0.2775 0.9607 15.6702 182.4392)" class="st0" width="32" height="0.5"/>
	<polygon class="st0" points="632.4,97.5 632.2,96.4 632,94.2 646.3,103.9 644.9,105.9 	"/>
	<path class="st0" d="M644.9,104.1l-0.3,0.4l-11.3-7.6c0-0.2,0-0.4-0.1-0.6L644.9,104.1z"/>
	<rect x="647.4" y="73.2" transform="matrix(0.4057 -0.914 0.914 0.4057 303.0159 646.4933)" class="st0" width="2.5" height="34"/>
	<rect x="648.5" y="74.3" transform="matrix(0.405 -0.9143 0.9143 0.405 303.4208 646.8264)" class="st0" width="0.5" height="32"/>
	<path class="st0" d="M632.3,114.1v-0.5l0-0.1c0-0.2,0.1-0.3,0.1-0.5l0.3-1.9l13.7,13.1l-1.7,1.8L632.3,114.1z"/>
	<path class="st0" d="M645,124.1l-0.3,0.3l-11.3-10.9v0c0-0.2,0.1-0.4,0.1-0.5L645,124.1z"/>
	<line class="st2" x1="285.6" y1="93.7" x2="256.5" y2="96.3"/>
</g>
</svg>
